HIERARCHY
ROOT mixamorig:Hips
{
	OFFSET -0.000008 104.274872 1.554316
	CHANNELS 6 Xposition Yposition Zposition Xrotation Yrotation Zrotation
	JOINT mixamorig:Spine
	{
		OFFSET -0.000005 10.181595 0.131519
		CHANNELS 6 Xposition Yposition Zposition Xrotation Yrotation Zrotation
		JOINT mixamorig:Spine1
		{
			OFFSET -0.000000 9.893959 -1.470707
			CHANNELS 6 Xposition Yposition Zposition Xrotation Yrotation Zrotation
			JOINT mixamorig:Spine2
			{
				OFFSET -0.000000 9.220757 -1.370641
				CHANNELS 6 Xposition Yposition Zposition Xrotation Yrotation Zrotation
				JOINT mixamorig:Neck
				{
					OFFSET 0.000001 16.740417 -2.049036
					CHANNELS 6 Xposition Yposition Zposition Xrotation Yrotation Zrotation
					JOINT mixamorig:Head
					{
						OFFSET 0.000000 9.617874 1.685006
						CHANNELS 6 Xposition Yposition Zposition Xrotation Yrotation Zrotation
						JOINT mixamorig:HeadTop_End
						{
							OFFSET 0.000002 22.037354 7.501101
							CHANNELS 6 Xposition Yposition Zposition Xrotation Yrotation Zrotation
							End Site
							{
								OFFSET 0.000168 2310.654297 -282.823242
							}
						}
					}
				}
				JOINT mixamorig:RightShoulder
				{
					OFFSET -4.569970 11.014908 -2.160885
					CHANNELS 6 Xposition Yposition Zposition Xrotation Yrotation Zrotation
					JOINT mixamorig:RightArm
					{
						OFFSET -10.592851 -0.524811 -2.232101
						CHANNELS 6 Xposition Yposition Zposition Xrotation Yrotation Zrotation
						JOINT mixamorig:RightForeArm
						{
							OFFSET -27.841511 0.000031 -0.000004
							CHANNELS 6 Xposition Yposition Zposition Xrotation Yrotation Zrotation
							JOINT mixamorig:RightHand
							{
								OFFSET -28.328831 -0.000015 0.000015
								CHANNELS 6 Xposition Yposition Zposition Xrotation Yrotation Zrotation
								JOINT mixamorig:RightHandThumb1
								{
									OFFSET -2.464806 -1.573990 2.681852
									CHANNELS 6 Xposition Yposition Zposition Xrotation Yrotation Zrotation
									JOINT mixamorig:RightHandThumb2
									{
										OFFSET -3.215179 -1.872803 1.924282
										CHANNELS 6 Xposition Yposition Zposition Xrotation Yrotation Zrotation
										JOINT mixamorig:RightHandThumb3
										{
											OFFSET -2.654831 -1.527969 1.512609
											CHANNELS 6 Xposition Yposition Zposition Xrotation Yrotation Zrotation
											JOINT mixamorig:RightHandThumb4
											{
												OFFSET -2.018814 -1.152008 1.108052
												CHANNELS 6 Xposition Yposition Zposition Xrotation Yrotation Zrotation
												End Site
												{
													OFFSET -188.809540 -114.533607 132.431396
												}
											}
										}
									}
								}
								JOINT mixamorig:RightHandIndex1
								{
									OFFSET -9.108284 -0.517868 2.259835
									CHANNELS 6 Xposition Yposition Zposition Xrotation Yrotation Zrotation
									JOINT mixamorig:RightHandIndex2
									{
										OFFSET -3.699989 0.000000 0.001215
										CHANNELS 6 Xposition Yposition Zposition Xrotation Yrotation Zrotation
										JOINT mixamorig:RightHandIndex3
										{
											OFFSET -2.850006 0.000031 -0.000522
											CHANNELS 6 Xposition Yposition Zposition Xrotation Yrotation Zrotation
											JOINT mixamorig:RightHandIndex4
											{
												OFFSET -2.772186 -0.000015 -0.000020
												CHANNELS 6 Xposition Yposition Zposition Xrotation Yrotation Zrotation
												End Site
												{
													OFFSET -277.218445 0.000000 -0.050231
												}
											}
										}
									}
								}
								JOINT mixamorig:RightHandMiddle1
								{
									OFFSET -9.532516 -0.000031 -0.000023
									CHANNELS 6 Xposition Yposition Zposition Xrotation Yrotation Zrotation
									JOINT mixamorig:RightHandMiddle2
									{
										OFFSET -3.700005 -0.000015 0.003713
										CHANNELS 6 Xposition Yposition Zposition Xrotation Yrotation Zrotation
										JOINT mixamorig:RightHandMiddle3
										{
											OFFSET -2.949974 0.000015 -0.002054
											CHANNELS 6 Xposition Yposition Zposition Xrotation Yrotation Zrotation
											JOINT mixamorig:RightHandMiddle4
											{
												OFFSET -2.946640 0.000000 -0.000156
												CHANNELS 6 Xposition Yposition Zposition Xrotation Yrotation Zrotation
												End Site
												{
													OFFSET -294.664337 0.000000 -0.113670
												}
											}
										}
									}
								}
								JOINT mixamorig:RightHandRing1
								{
									OFFSET -9.103600 -0.043076 -1.865134
									CHANNELS 6 Xposition Yposition Zposition Xrotation Yrotation Zrotation
									JOINT mixamorig:RightHandRing2
									{
										OFFSET -3.379288 0.000000 -0.001055
										CHANNELS 6 Xposition Yposition Zposition Xrotation Yrotation Zrotation
										JOINT mixamorig:RightHandRing3
										{
											OFFSET -2.889687 -0.000015 0.000379
											CHANNELS 6 Xposition Yposition Zposition Xrotation Yrotation Zrotation
											JOINT mixamorig:RightHandRing4
											{
												OFFSET -2.638809 -0.000015 0.000941
												CHANNELS 6 Xposition Yposition Zposition Xrotation Yrotation Zrotation
												End Site
												{
													OFFSET -263.880371 0.000000 0.516020
												}
											}
										}
									}
								}
								JOINT mixamorig:RightHandPinky1
								{
									OFFSET -8.076683 -0.486710 -3.806280
									CHANNELS 6 Xposition Yposition Zposition Xrotation Yrotation Zrotation
									JOINT mixamorig:RightHandPinky2
									{
										OFFSET -3.600014 -0.000015 -0.003747
										CHANNELS 6 Xposition Yposition Zposition Xrotation Yrotation Zrotation
										JOINT mixamorig:RightHandPinky3
										{
											OFFSET -2.099983 0.000000 -0.005739
											CHANNELS 6 Xposition Yposition Zposition Xrotation Yrotation Zrotation
											JOINT mixamorig:RightHandPinky4
											{
												OFFSET -2.115768 -0.000031 -0.003680
												CHANNELS 6 Xposition Yposition Zposition Xrotation Yrotation Zrotation
												End Site
												{
													OFFSET -211.577087 0.000000 -0.350686
												}
											}
										}
									}
								}
							}
						}
					}
				}
				JOINT mixamorig:LeftShoulder
				{
					OFFSET 4.570447 11.014725 -2.160855
					CHANNELS 6 Xposition Yposition Zposition Xrotation Yrotation Zrotation
					JOINT mixamorig:LeftArm
					{
						OFFSET 10.592371 -0.524597 -2.232119
						CHANNELS 6 Xposition Yposition Zposition Xrotation Yrotation Zrotation
						JOINT mixamorig:LeftForeArm
						{
							OFFSET 27.841532 -0.000031 0.000026
							CHANNELS 6 Xposition Yposition Zposition Xrotation Yrotation Zrotation
							JOINT mixamorig:LeftHand
							{
								OFFSET 28.328846 -0.000061 0.000022
								CHANNELS 6 Xposition Yposition Zposition Xrotation Yrotation Zrotation
								JOINT mixamorig:LeftHandThumb1
								{
									OFFSET 2.466141 -1.576172 2.681732
									CHANNELS 6 Xposition Yposition Zposition Xrotation Yrotation Zrotation
									JOINT mixamorig:LeftHandThumb2
									{
										OFFSET 3.217812 -1.872070 1.916482
										CHANNELS 6 Xposition Yposition Zposition Xrotation Yrotation Zrotation
										JOINT mixamorig:LeftHandThumb3
										{
											OFFSET 2.656029 -1.528778 1.514513
											CHANNELS 6 Xposition Yposition Zposition Xrotation Yrotation Zrotation
											JOINT mixamorig:LeftHandThumb4
											{
												OFFSET 2.020889 -1.154053 1.115139
												CHANNELS 6 Xposition Yposition Zposition Xrotation Yrotation Zrotation
												End Site
												{
													OFFSET 190.885437 -115.081749 130.048782
												}
											}
										}
									}
								}
								JOINT mixamorig:LeftHandIndex1
								{
									OFFSET 9.109314 -0.518021 2.259871
									CHANNELS 6 Xposition Yposition Zposition Xrotation Yrotation Zrotation
									JOINT mixamorig:LeftHandIndex2
									{
										OFFSET 3.699989 0.000000 -0.000322
										CHANNELS 6 Xposition Yposition Zposition Xrotation Yrotation Zrotation
										JOINT mixamorig:LeftHandIndex3
										{
											OFFSET 2.850006 0.000000 0.000352
											CHANNELS 6 Xposition Yposition Zposition Xrotation Yrotation Zrotation
											JOINT mixamorig:LeftHandIndex4
											{
												OFFSET 2.774864 -0.000031 -0.000027
												CHANNELS 6 Xposition Yposition Zposition Xrotation Yrotation Zrotation
												End Site
												{
													OFFSET 277.486267 0.000000 -0.009857
												}
											}
										}
									}
								}
								JOINT mixamorig:LeftHandMiddle1
								{
									OFFSET 9.533394 0.000061 0.000044
									CHANNELS 6 Xposition Yposition Zposition Xrotation Yrotation Zrotation
									JOINT mixamorig:LeftHandMiddle2
									{
										OFFSET 3.699989 -0.000015 -0.000231
										CHANNELS 6 Xposition Yposition Zposition Xrotation Yrotation Zrotation
										JOINT mixamorig:LeftHandMiddle3
										{
											OFFSET 2.949997 -0.000015 -0.000059
											CHANNELS 6 Xposition Yposition Zposition Xrotation Yrotation Zrotation
											JOINT mixamorig:LeftHandMiddle4
											{
												OFFSET 2.952896 0.000031 0.000063
												CHANNELS 6 Xposition Yposition Zposition Xrotation Yrotation Zrotation
												End Site
												{
													OFFSET 295.289337 0.000000 0.022810
												}
											}
										}
									}
								}
								JOINT mixamorig:LeftHandRing1
								{
									OFFSET 9.104523 -0.042999 -1.865074
									CHANNELS 6 Xposition Yposition Zposition Xrotation Yrotation Zrotation
									JOINT mixamorig:LeftHandRing2
									{
										OFFSET 3.150009 -0.000031 0.000043
										CHANNELS 6 Xposition Yposition Zposition Xrotation Yrotation Zrotation
										JOINT mixamorig:LeftHandRing3
										{
											OFFSET 2.949982 -0.000015 0.000040
											CHANNELS 6 Xposition Yposition Zposition Xrotation Yrotation Zrotation
											JOINT mixamorig:LeftHandRing4
											{
												OFFSET 2.644348 0.000000 0.000057
												CHANNELS 6 Xposition Yposition Zposition Xrotation Yrotation Zrotation
												End Site
												{
													OFFSET 264.434631 0.000000 0.012105
												}
											}
										}
									}
								}
								JOINT mixamorig:LeftHandPinky1
								{
									OFFSET 8.077789 -0.486847 -3.806259
									CHANNELS 6 Xposition Yposition Zposition Xrotation Yrotation Zrotation
									JOINT mixamorig:LeftHandPinky2
									{
										OFFSET 3.599953 0.000031 0.014727
										CHANNELS 6 Xposition Yposition Zposition Xrotation Yrotation Zrotation
										JOINT mixamorig:LeftHandPinky3
										{
											OFFSET 2.100021 0.000015 0.007705
											CHANNELS 6 Xposition Yposition Zposition Xrotation Yrotation Zrotation
											JOINT mixamorig:LeftHandPinky4
											{
												OFFSET 2.125504 0.000031 0.007517
												CHANNELS 6 Xposition Yposition Zposition Xrotation Yrotation Zrotation
												End Site
												{
													OFFSET 212.550781 0.000000 0.625752
												}
											}
										}
									}
								}
							}
						}
					}
				}
			}
		}
	}
	JOINT mixamorig:RightUpLeg
	{
		OFFSET -8.207787 -6.751648 -1.599560
		CHANNELS 6 Xposition Yposition Zposition Xrotation Yrotation Zrotation
		JOINT mixamorig:RightLeg
		{
			OFFSET -0.000002 -44.370117 0.345942
			CHANNELS 6 Xposition Yposition Zposition Xrotation Yrotation Zrotation
			JOINT mixamorig:RightFoot
			{
				OFFSET 0.000003 -44.423679 -3.043532
				CHANNELS 6 Xposition Yposition Zposition Xrotation Yrotation Zrotation
				JOINT mixamorig:RightToeBase
				{
					OFFSET -0.000002 -8.728671 10.710558
					CHANNELS 6 Xposition Yposition Zposition Xrotation Yrotation Zrotation
					JOINT mixamorig:RightToe_End
					{
						OFFSET -0.000001 -0.000679 9.278119
						CHANNELS 6 Xposition Yposition Zposition Xrotation Yrotation Zrotation
						End Site
						{
							OFFSET 0.000000 -0.067690 927.812134
						}
					}
				}
			}
		}
	}
	JOINT mixamorig:LeftUpLeg
	{
		OFFSET 8.207793 -6.751686 -1.599556
		CHANNELS 6 Xposition Yposition Zposition Xrotation Yrotation Zrotation
		JOINT mixamorig:LeftLeg
		{
			OFFSET -0.000004 -44.370014 0.346954
			CHANNELS 6 Xposition Yposition Zposition Xrotation Yrotation Zrotation
			JOINT mixamorig:LeftFoot
			{
				OFFSET -0.000001 -44.423672 -3.044401
				CHANNELS 6 Xposition Yposition Zposition Xrotation Yrotation Zrotation
				JOINT mixamorig:LeftToeBase
				{
					OFFSET -0.000002 -8.728669 10.710558
					CHANNELS 6 Xposition Yposition Zposition Xrotation Yrotation Zrotation
					JOINT mixamorig:LeftToe_End
					{
						OFFSET -0.000003 -0.000679 9.278133
						CHANNELS 6 Xposition Yposition Zposition Xrotation Yrotation Zrotation
						End Site
						{
							OFFSET 0.000000 -0.068021 927.813477
						}
					}
				}
			}
		}
	}
}
MOTION
Frames: 3
Frame Time: 0.033333
0.000006 104.270477 1.554256 0.000010 0.000003 -0.000113 -0.000005 10.181587 0.131522 0.000001 -0.000003 0.000084 -0.000000 9.893967 -1.470711 0.000001 0.000000 -0.000000 -0.000000 9.220802 -1.370642 0.000000 -0.000000 -0.000000 0.000001 16.740433 -2.049030 0.000000 -0.000000 -0.000000 0.000000 9.617859 1.685014 0.000000 0.000000 0.000000 0.000002 22.037384 7.501101 0.000000 -0.000000 0.000000 -4.569968 11.014880 -2.160881 0.000008 0.000001 -0.000038 -10.592806 -0.524832 -2.231769 64.426859 61.604932 -41.175232 -27.841488 0.000025 0.000589 40.328135 106.226203 -52.146790 -28.328835 0.000005 0.000023 -0.000323 -0.000045 0.000006 -2.464473 -1.574078 2.682348 4.921045 -139.544699 70.435267 -3.214961 -1.872982 1.924735 207.481257 -30.071564 281.076901 -2.654741 -1.528170 1.513144 201.288926 -10.952800 291.407453 -2.018858 -1.152022 1.108052 -0.000003 -0.000004 0.000005 -9.108177 -0.517827 2.260431 192.316339 39.101453 -213.873358 -3.700065 0.000088 0.001725 133.807040 39.792388 -80.588050 -2.850138 0.000259 -0.000111 119.653071 25.762907 -42.942417 -2.772148 -0.000014 -0.000022 0.000001 0.000002 -0.000003 -9.532405 -0.000034 0.000561 180.816213 38.654213 -182.647823 -3.700111 0.000217 0.004147 122.575531 26.782570 -46.797611 -2.950101 0.000318 -0.001727 467.214828 16.468392 -22.205678 -2.946633 0.000012 -0.000153 0.000001 -0.000003 0.000003 -9.103481 -0.043025 -1.864527 188.477021 38.925262 -203.608923 -3.379351 0.000225 -0.000637 126.688452 13.151104 -25.901894 -2.889732 0.000395 0.000720 475.247841 2.772027 -4.438597 -2.638822 -0.000015 0.000936 0.000000 -0.000001 -0.000004 -8.076591 -0.486650 -3.805693 184.155342 42.238467 -190.448883 -3.600046 0.000167 -0.003277 141.947532 8.986126 -24.601757 -2.099983 0.000293 -0.005304 493.601270 -1.352346 3.606391 -2.115770 -0.000049 -0.003690 -0.000001 -0.000001 -0.000005 4.570446 11.014691 -2.160851 -0.000018 0.000010 -0.000021 10.592516 -0.524531 -2.232399 66.343574 -59.571592 41.026802 27.841766 -0.000073 -0.000116 214.480057 -74.593131 224.332126 28.328825 -0.000044 0.000018 0.000019 -0.000089 -0.000000 2.466094 -1.576175 2.681893 9.955795 121.754133 -63.634591 3.217793 -1.872024 1.916532 58.482115 130.231463 -114.786411 2.656039 -1.528767 1.514609 59.694344 144.512145 -122.804042 2.020891 -1.154056 1.115147 0.000001 0.000005 0.000002 9.109187 -0.517767 2.260122 238.645717 -25.061434 316.830400 3.699867 -0.000012 -0.000216 181.664222 -36.087721 185.146976 2.850131 0.000113 0.000353 152.360278 -25.278991 84.701149 2.774870 -0.000017 -0.000024 -0.000000 0.000001 0.000001 9.533276 0.000319 0.000290 235.826379 -22.690389 318.519014 3.699900 -0.000025 -0.000149 174.645478 -26.375733 157.417706 2.950148 0.000219 -0.000078 148.567843 -15.577759 51.859915 2.952876 -0.000023 0.000049 0.000001 0.000002 -0.000001 9.104404 -0.042736 -1.864838 233.428217 -20.508627 320.454171 3.149940 -0.000029 0.000110 173.912899 -13.045892 130.138067 2.950033 0.000329 0.000021 153.052955 -4.203324 17.423355 2.644322 0.000049 0.000050 0.000002 -0.000001 -0.000002 8.077674 -0.486559 -3.806038 -130.347112 -15.836424 -34.035461 3.599681 0.000377 0.014843 189.720880 -6.594819 -69.266239 2.100040 0.000407 0.007727 171.184703 -0.273025 9.201827 2.125515 -0.000028 0.007524 0.000001 0.000001 0.000004 -8.207786 -6.751667 -1.599560 -0.077001 -0.000003 0.000080 -0.000002 -44.370110 0.345938 0.153719 -0.000000 -0.000000 0.000000 -44.423679 -3.043532 -0.076700 0.000000 -0.000002 -0.000006 -8.728667 10.710559 -0.000009 -0.000000 -0.000000 -0.000001 -0.000679 9.278123 0.000000 -0.000000 -0.000000 8.207792 -6.751710 -1.599556 -0.074518 -0.000003 0.000081 -0.000002 -44.370014 0.346960 0.148822 0.000002 0.000000 -0.000001 -44.423664 -3.044403 -0.074314 0.000000 -0.000002 -0.000004 -8.728671 10.710558 0.000007 -0.000000 -0.000000 0.000000 -0.000680 9.278137 -0.000000 0.000000 -0.000001 
0.000006 104.270477 1.554256 0.000010 0.000003 -0.000113 -0.000005 10.181587 0.131522 0.000001 -0.000003 0.000084 -0.000000 9.893967 -1.470711 0.000001 0.000000 -0.000000 -0.000000 9.220802 -1.370642 0.000000 -0.000000 -0.000000 0.000001 16.740433 -2.049030 0.000000 -0.000000 -0.000000 0.000000 9.617859 1.685014 0.000000 0.000000 0.000000 0.000002 22.037384 7.501101 0.000000 -0.000000 0.000000 -4.569968 11.014880 -2.160881 0.000008 0.000001 -0.000038 -10.592815 -0.524831 -2.231777 63.507591 59.648295 -39.069368 -27.841501 0.000005 0.000575 37.864113 102.672906 -46.409151 -28.328838 0.000022 0.000021 -0.000327 -0.000044 0.000008 -2.464819 -1.574076 2.682376 13.898011 -182.155312 124.454981 -3.214918 -1.872929 1.924797 188.342890 -25.861133 264.293979 -2.654556 -1.528079 1.513182 171.970926 -22.209513 242.381776 -2.018841 -1.151999 1.108058 -0.000004 0.000006 0.000002 -9.108315 -0.517884 2.260372 236.318863 31.524468 -304.380550 -3.699990 0.000045 0.001790 49.665417 140.604840 -104.542677 -2.849977 0.000082 0.000064 222.842940 33.603366 75.166416 -2.772176 -0.000010 -0.000018 0.000003 -0.000002 0.000002 -9.532550 -0.000113 0.000470 250.173054 27.816487 -321.103476 -3.700039 -0.000029 0.004224 249.570331 39.153472 54.211082 -2.950047 -0.000022 -0.001525 428.618358 134.812320 -117.248161 -2.946627 0.000008 -0.000160 0.000001 0.000003 0.000001 -9.103661 -0.043150 -1.864666 257.813359 27.415174 -326.386819 -3.379313 -0.000108 -0.000560 250.741053 20.556214 28.670341 -2.889704 0.000028 0.000950 594.406829 26.590329 49.402649 -2.638819 -0.000014 0.000937 -0.000000 -0.000001 0.000001 -8.076747 -0.486824 -3.805909 95.298740 152.147942 -154.574530 -3.600007 -0.000196 -0.003307 257.557964 9.965919 12.072510 -2.100005 -0.000026 -0.005198 593.394705 11.384662 22.135270 -2.115776 -0.000025 -0.003674 0.000002 0.000001 -0.000003 4.570446 11.014691 -2.160851 -0.000018 0.000010 -0.000021 10.592512 -0.524532 -2.232399 66.103479 -58.813045 40.280518 27.841778 -0.000045 -0.000124 211.685649 -77.350711 219.041626 28.328842 -0.000028 0.000029 0.000020 -0.000087 -0.000001 2.466232 -1.576100 2.681849 13.338764 157.359376 -95.468662 3.217837 -1.871976 1.916540 34.309652 148.991670 -106.636240 2.656073 -1.528727 1.514600 30.802411 154.293236 -106.447562 2.020887 -1.154057 1.115152 0.000001 0.000001 0.000004 9.109179 -0.517807 2.260098 238.053949 -28.557432 310.730413 3.699803 0.000084 -0.000139 217.092372 -46.978314 255.344491 2.849783 0.000115 0.000518 203.135946 -40.249984 238.372509 2.774871 -0.000033 -0.000014 0.000001 -0.000003 0.000000 9.533279 0.000219 0.000289 250.051094 -32.464330 314.887512 3.699746 0.000153 -0.000006 215.393171 -37.411320 266.599386 2.949757 0.000134 0.000100 203.245079 -32.728067 -109.977930 2.952869 -0.000029 0.000058 0.000003 -0.000002 -0.000001 9.104421 -0.042872 -1.864825 260.483088 -32.043108 322.515276 3.149883 0.000335 0.000295 230.865858 -16.843410 -34.588628 2.949880 0.000354 0.000251 222.025285 -10.238086 -26.258019 2.644317 0.000013 0.000055 0.000001 -0.000000 0.000000 8.077700 -0.486758 -3.806020 -84.248785 -31.065825 -28.364466 3.599917 0.000249 0.014986 261.975731 -8.654079 -10.357628 2.099993 0.000254 0.007965 252.607662 -3.732201 -5.588108 2.125509 0.000000 0.007513 0.000000 -0.000000 0.000001 -8.207786 -6.751667 -1.599560 -0.077001 -0.000003 0.000080 -0.000002 -44.370110 0.345938 0.153719 -0.000000 -0.000000 0.000000 -44.423679 -3.043532 -0.076700 0.000000 -0.000002 -0.000006 -8.728667 10.710559 -0.000009 -0.000000 -0.000000 -0.000001 -0.000679 9.278123 0.000000 -0.000000 -0.000000 8.207792 -6.751710 -1.599556 -0.074518 -0.000003 0.000081 -0.000002 -44.370014 0.346960 0.148822 0.000002 0.000000 -0.000001 -44.423664 -3.044403 -0.074314 0.000000 -0.000002 -0.000004 -8.728671 10.710558 0.000007 -0.000000 -0.000000 0.000000 -0.000680 9.278137 -0.000000 0.000000 -0.000001 
0.000006 104.270477 1.554256 0.000010 0.000003 -0.000113 -0.000005 10.181587 0.131522 0.000001 -0.000003 0.000084 -0.000000 9.893967 -1.470711 0.000001 0.000000 -0.000000 -0.000000 9.220802 -1.370642 0.000000 -0.000000 -0.000000 0.000001 16.740433 -2.049030 0.000000 -0.000000 -0.000000 0.000000 9.617859 1.685014 0.000000 0.000000 0.000000 0.000002 22.037384 7.501101 0.000000 -0.000000 0.000000 -4.569968 11.014880 -2.160881 0.000008 0.000001 -0.000038 -10.592821 -0.524826 -2.231791 63.034122 56.941341 -36.788058 -27.841501 0.000000 0.000571 33.652892 100.242110 -39.796698 -28.328840 0.000010 0.000028 -0.000320 -0.000044 0.000009 -2.464826 -1.573725 2.682350 -51.097861 -243.548208 -8.872770 -3.215268 -1.872597 1.924687 224.268701 73.412977 408.805099 -2.654951 -1.527833 1.513052 186.869591 79.029523 100.006291 -2.018822 -1.151998 1.108061 -0.000003 -0.000003 0.000000 -9.108436 -0.517902 2.260173 318.611277 58.521956 -336.113254 -3.700148 -0.000010 0.001478 163.591377 129.227657 -172.164030 -2.850163 -0.000013 -0.000321 342.956393 42.056248 6.593720 -2.772177 -0.000014 -0.000024 0.000002 0.000004 0.000002 -9.532625 -0.000092 0.000381 289.385006 55.138447 -319.441117 -3.700152 -0.000011 0.003973 345.465914 52.531320 7.233777 -2.950156 0.000007 -0.001847 542.256532 127.496286 -181.109911 -2.946624 0.000014 -0.000142 0.000002 0.000003 -0.000000 -9.103689 -0.043095 -1.864659 268.381273 55.905573 -302.733464 -3.379418 -0.000047 -0.000741 328.375961 58.131337 17.884430 -2.889859 0.000143 0.000617 583.958061 137.278278 162.027824 -2.638799 -0.000003 0.000930 -0.000001 -0.000004 -0.000001 -8.076729 -0.486721 -3.805779 68.786220 134.611281 -117.149683 -3.599970 -0.000024 -0.003197 221.741081 13.574227 34.197101 -2.099999 0.000125 -0.005190 528.809474 1.335901 -11.343030 -2.115772 -0.000049 -0.003670 -0.000004 -0.000001 -0.000005 4.570446 11.014691 -2.160851 -0.000018 0.000010 -0.000021 10.592510 -0.524521 -2.232398 66.222263 -58.153173 39.865806 27.841778 -0.000021 -0.000138 209.577839 -81.167175 214.258444 28.328831 -0.000032 0.000023 0.000020 -0.000089 0.000000 2.466076 -1.576170 2.681888 130.441915 142.390757 -183.762538 3.217764 -1.872042 1.916543 135.568859 143.436554 -183.552277 2.655946 -1.528827 1.514646 134.322650 150.689095 -192.623383 2.020864 -1.154097 1.115137 0.000001 0.000007 0.000004 9.109215 -0.517852 2.260118 269.316435 0.034694 325.997908 3.699805 0.000109 -0.000112 240.712696 -43.573185 282.508891 2.849794 0.000187 0.000573 236.696108 -34.349100 285.595399 2.774884 -0.000045 -0.000032 -0.000003 -0.000000 0.000001 9.533296 0.000197 0.000284 273.842337 -2.115012 326.119840 3.699786 0.000146 0.000003 239.883074 -33.520728 286.836690 2.949765 0.000145 0.000121 239.195028 -23.878563 -85.664110 2.952860 -0.000030 0.000063 0.000001 0.000000 -0.000001 9.104430 -0.042851 -1.864833 271.973980 -0.823637 328.256214 3.149896 0.000235 0.000316 255.827959 10.477020 -23.744243 2.949875 0.000202 0.000341 257.844641 10.383256 -23.781324 2.644318 0.000030 0.000061 -0.000001 0.000000 -0.000000 8.077683 -0.486681 -3.806006 -92.190670 0.847633 -32.682988 3.599938 0.000252 0.014978 258.167818 -11.269413 -8.518565 2.099924 0.000262 0.007968 253.352425 -13.301980 -19.466724 2.125499 -0.000016 0.007516 -0.000003 -0.000001 -0.000001 -8.207786 -6.751667 -1.599560 -0.077001 -0.000003 0.000080 -0.000002 -44.370110 0.345938 0.153719 -0.000000 -0.000000 0.000000 -44.423679 -3.043532 -0.076700 0.000000 -0.000002 -0.000006 -8.728667 10.710559 -0.000009 -0.000000 -0.000000 -0.000001 -0.000679 9.278123 0.000000 -0.000000 -0.000000 8.207792 -6.751710 -1.599556 -0.074518 -0.000003 0.000081 -0.000002 -44.370014 0.346960 0.148822 0.000002 0.000000 -0.000001 -44.423664 -3.044403 -0.074314 0.000000 -0.000002 -0.000004 -8.728671 10.710558 0.000007 -0.000000 -0.000000 0.000000 -0.000680 9.278137 -0.000000 0.000000 -0.000001 
